<svg width="783" height="357" viewBox="0 0 783 357" fill="none" xmlns="http://www.w3.org/2000/svg">
<path d="M455.333 165.75C455.333 154.478 459.407 143.668 466.659 135.698C473.91 127.728 483.745 123.25 494 123.25H610C620.255 123.25 630.09 127.728 637.341 135.698C644.593 143.668 648.667 154.478 648.667 165.75V293.25C648.667 304.522 644.593 315.332 637.341 323.302C630.09 331.272 620.255 335.75 610 335.75H494C483.745 335.75 473.91 331.272 466.659 323.302C459.407 315.332 455.333 304.522 455.333 293.25V165.75Z" stroke="white" stroke-width="25" stroke-linecap="round" stroke-linejoin="round"/>
<path d="M518.167 218.875C531.514 218.875 542.333 206.983 542.333 192.312C542.333 177.642 531.514 165.75 518.167 165.75C504.82 165.75 494 177.642 494 192.312C494 206.983 504.82 218.875 518.167 218.875Z" stroke="white" stroke-width="25" stroke-linecap="round" stroke-linejoin="round"/>
<path d="M576.418 236.098L494 335.75H611.286C621.2 335.75 630.708 331.421 637.718 323.716C644.728 316.011 648.667 305.56 648.667 294.663V293.25C648.667 288.299 646.975 286.397 643.93 282.731L604.973 236.034C603.158 233.857 600.949 232.12 598.489 230.934C596.028 229.748 593.37 229.138 590.683 229.144C587.996 229.15 585.34 229.772 582.884 230.969C580.428 232.166 578.226 233.913 576.418 236.098V236.098Z" stroke="white" stroke-width="25" stroke-linecap="round" stroke-linejoin="round"/>
<path d="M2.016 349.472V326.144C9.12 326.144 14.88 325.664 19.296 324.704C23.712 323.744 27.072 322.016 29.376 319.52C31.872 317.024 33.6 313.472 34.56 308.864C35.52 304.064 36 298.016 36 290.72V110.72H68.256V291.296C68.256 304.736 66.816 315.776 63.936 324.416C61.056 332.864 55.968 339.2 48.672 343.424C41.376 347.456 31.008 349.472 17.568 349.472H2.016ZM104.769 344V110.72H195.201V134.912H137.313V212.096H184.257V235.136H137.313V320.672H195.777V344H104.769ZM222.05 344V110.72H254.594V320.672H314.21V344H222.05ZM336.519 344V110.72H369.063V320.672H428.679V344H336.519Z" fill="white"/>
</svg>
